<svg width="113" height="143" viewBox="0 0 113 143" fill="none" xmlns="http://www.w3.org/2000/svg">
<path d="M53.3333 0C23.8933 0 0 23.8933 0 53.3333C0 82.7733 23.8933 106.667 53.3333 106.667C82.7733 106.667 106.667 82.7733 106.667 53.3333C106.667 23.8933 82.7733 0 53.3333 0ZM48 95.6267C26.9333 93.0133 10.6667 75.0933 10.6667 53.3333C10.6667 50.0267 11.0933 46.88 11.7867 43.7867L37.3333 69.3333V74.6667C37.3333 80.5333 42.1333 85.3333 48 85.3333V95.6267ZM84.8 82.08C83.4133 77.76 79.4667 74.6667 74.6667 74.6667H69.3333V58.6667C69.3333 55.7333 66.9333 53.3333 64 53.3333H32V42.6667H42.6667C45.6 42.6667 48 40.2667 48 37.3333V26.6667H58.6667C64.5333 26.6667 69.3333 21.8667 69.3333 16V13.8133C84.96 20.16 96 35.4667 96 53.3333C96 64.4267 91.7333 74.5067 84.8 82.08Z" fill="white"/>
<path d="M16.7565 128.699H8.21352V139.562H2.79945V111.367L16.2643 111.402C19.2174 111.402 21.5026 112.188 23.1198 113.758C24.6198 115.258 25.3698 117.25 25.3698 119.734C25.3698 122.312 24.7252 124.387 23.4362 125.957C21.9127 127.785 19.6862 128.699 16.7565 128.699ZM15.3151 115.41H8.21352V124.621H15.1393C16.569 124.621 17.7291 124.211 18.6198 123.391C19.5338 122.547 19.9909 121.352 19.9909 119.805C19.9909 118.422 19.4987 117.332 18.5143 116.535C17.6471 115.785 16.5807 115.41 15.3151 115.41ZM47.199 139.527H42.8396L42.7341 138.016C40.7888 139.398 38.656 140.09 36.3357 140.09C32.9607 140.09 30.5935 139.434 29.2341 138.121C28.0154 136.949 27.406 134.98 27.406 132.215L27.4412 119.77H32.0818L32.0466 132.215C32.0466 134.84 33.4177 136.152 36.1599 136.152C37.6599 136.152 38.9959 135.836 40.1677 135.203C41.2693 134.641 42.0427 133.914 42.488 133.023V119.77H47.2341L47.199 139.527ZM61.8212 119.031C65.0087 119.078 67.4579 120.121 69.1688 122.16C70.8095 124.105 71.6063 126.637 71.5595 129.754C71.4423 136.457 68.0907 139.879 61.5048 140.02C59.0907 140.066 56.5595 139.727 53.911 139L50.6766 139.07V110.664H55.3173V120.051C57.2626 119.324 59.4305 118.984 61.8212 119.031ZM61.118 136.117C64.9384 136.117 66.8485 133.926 66.8485 129.543C66.8485 127.41 66.2977 125.734 65.1962 124.516C64.2352 123.414 62.9345 122.863 61.2938 122.863C58.7157 122.863 56.7118 123.461 55.2821 124.656V134.781C56.4305 135.672 58.3759 136.117 61.118 136.117ZM80.3457 111.156V139.527H75.7402V114.848H73.666V111.156H80.3457ZM85.4405 116.465V111.719H90.1163V116.465H85.4405ZM89.9757 119.664V139.457H85.3702V123.355H83.296V119.664H89.9757ZM111.559 134.746L112.403 138.402C110.809 139.598 108.031 140.207 104.071 140.23C96.5002 140.277 92.6448 136.82 92.5041 129.859C92.4338 126.766 93.3713 124.234 95.3166 122.266C97.4729 120.086 100.508 118.996 104.422 118.996C107.539 118.996 110.106 119.547 112.121 120.648L110.891 124.34H110.223C109.801 123.918 109.039 123.555 107.938 123.25C106.86 122.945 105.793 122.793 104.739 122.793C102.582 122.793 100.836 123.344 99.5002 124.445C98.0237 125.711 97.2854 127.48 97.2854 129.754C97.262 131.957 97.9534 133.621 99.3596 134.746C100.625 135.777 102.348 136.293 104.528 136.293C105.723 136.293 106.906 136.176 108.078 135.941C109.438 135.637 110.387 135.238 110.926 134.746H111.559Z" fill="white"/>
</svg>
