<svg width="132" height="126" viewBox="0 0 132 126" fill="none" xmlns="http://www.w3.org/2000/svg">
<path d="M80.3846 39.3462C80.3846 32.4531 77.9348 26.5568 73.0352 21.6572C68.1355 16.7575 62.2392 14.3077 55.3462 14.3077C48.4531 14.3077 42.5568 16.7575 37.6572 21.6572C32.7575 26.5568 30.3077 32.4531 30.3077 39.3462C30.3077 46.2392 32.7575 52.1355 37.6572 57.0352C42.5568 61.9348 48.4531 64.3846 55.3462 64.3846C62.2392 64.3846 68.1355 61.9348 73.0352 57.0352C77.9348 52.1355 80.3846 46.2392 80.3846 39.3462ZM109 85.8462C109 87.7837 108.292 89.4603 106.876 90.8762C105.46 92.2921 103.784 93 101.846 93C99.8341 93 98.1575 92.2921 96.8161 90.8762L77.646 71.762C70.9766 76.3822 63.5433 78.6923 55.3462 78.6923C50.018 78.6923 44.9228 77.6584 40.0604 75.5904C35.198 73.5225 31.0063 70.7281 27.4853 67.207C23.9642 63.686 21.1698 59.4943 19.1019 54.6319C17.034 49.7695 16 44.6743 16 39.3462C16 34.018 17.034 28.9228 19.1019 24.0604C21.1698 19.198 23.9642 15.0063 27.4853 11.4853C31.0063 7.96424 35.198 5.16977 40.0604 3.10186C44.9228 1.03395 50.018 0 55.3462 0C60.6743 0 65.7695 1.03395 70.6319 3.10186C75.4943 5.16977 79.686 7.96424 83.207 11.4853C86.7281 15.0063 89.5225 19.198 91.5904 24.0604C93.6584 28.9228 94.6923 34.018 94.6923 39.3462C94.6923 47.5433 92.3822 54.9766 87.762 61.646L106.932 80.8161C108.311 82.1947 109 83.8714 109 85.8462Z" fill="white"/>
<path d="M13.6066 123.441C11.8488 123.441 10.5246 123.383 9.63399 123.266C6.3293 122.867 3.79805 121.988 2.04024 120.629L3.48164 116.34H4.39571C5.30977 117.16 6.7043 117.863 8.5793 118.449C10.3137 118.918 11.802 119.141 13.0441 119.117C15.0363 119.07 16.4895 118.871 17.4035 118.52C18.8098 117.934 19.5832 116.891 19.7238 115.391C19.7707 114.828 19.6418 114.254 19.3371 113.668C18.8918 112.895 18.2004 112.32 17.2629 111.945C14.9426 111.008 11.7551 109.988 7.70039 108.887C3.99727 107.879 2.14571 105.605 2.14571 102.066C2.14571 101.598 2.18086 101.141 2.25117 100.695C2.62617 97.9297 4.12617 95.9609 6.75117 94.7891C8.64961 93.9453 11.052 93.5469 13.9582 93.5938C17.6145 93.6641 20.7434 94.4492 23.3449 95.9492L21.6223 99.8867H20.8137C20.1574 99.3477 19.1027 98.8672 17.6496 98.4453C16.1965 98 14.9543 97.7773 13.923 97.7773C9.7043 97.7773 7.52461 98.9961 7.38399 101.434C7.29024 102.934 8.07539 103.953 9.73946 104.492C10.2551 104.68 12.0246 105.195 15.048 106.039C17.2277 106.672 18.9621 107.27 20.2512 107.832C21.9387 108.512 23.1926 109.566 24.0129 110.996C24.6926 112.191 25.0324 113.516 25.0324 114.969C25.0324 118.25 23.8723 120.559 21.552 121.895C19.7707 122.926 17.1223 123.441 13.6066 123.441ZM46.8968 106.496C47.5999 107.832 47.9515 109.66 47.9515 111.98C47.9515 112.496 47.9398 113.012 47.9163 113.527H31.7093C31.8265 115.496 32.4124 116.938 33.4671 117.852C34.5452 118.742 36.2327 119.199 38.5296 119.223C41.2952 119.246 43.4984 118.707 45.139 117.605L45.7718 117.641L46.6155 121.227C45.3968 122.047 43.9554 122.574 42.2913 122.809C40.6273 123.066 39.1859 123.195 37.9671 123.195C35.6937 123.172 33.7601 122.82 32.1663 122.141C28.5335 120.617 26.7757 117.477 26.8929 112.719C26.9866 109.438 27.9593 106.871 29.8109 105.02C31.803 103.004 34.4515 101.984 37.7562 101.961C39.678 101.938 41.4359 102.289 43.0296 103.016C44.7874 103.836 46.0765 104.996 46.8968 106.496ZM32.096 110.047H43.2054C42.7835 107.047 40.8148 105.605 37.2991 105.723C34.6038 105.816 32.8695 107.258 32.096 110.047ZM67.9877 108.184V122.035H65.1049C63.3705 122.645 61.6713 123.008 60.0073 123.125C59.7026 123.148 58.894 123.148 57.5815 123.125C52.7534 123.055 50.0815 121.402 49.5659 118.168C49.519 117.746 49.4955 117.336 49.4955 116.938C49.4955 113.961 51.2534 111.816 54.769 110.504C55.7768 110.129 57.0776 109.836 58.6713 109.625C59.9838 109.461 61.2963 109.285 62.6088 109.098C62.7729 109.051 63.0424 108.98 63.4174 108.887V108.184C63.4174 107.387 63.0659 106.707 62.3627 106.145C61.5659 105.582 60.5229 105.324 59.2338 105.371C56.187 105.441 53.7963 106.156 52.062 107.516L51.4291 107.41L50.0229 104.211C52.6479 102.711 55.7182 101.926 59.2338 101.855C61.7651 101.762 63.8276 102.254 65.4213 103.332C67.1323 104.48 67.9877 106.098 67.9877 108.184ZM57.476 119.539C59.1401 119.633 60.394 119.586 61.2377 119.398C62.1987 119.188 62.9487 118.883 63.4877 118.484V112.473C62.5034 112.637 61.0268 112.883 59.058 113.211C57.9565 113.352 57.0424 113.574 56.3159 113.879C54.8393 114.465 54.101 115.379 54.101 116.621C54.101 116.855 54.1245 117.113 54.1713 117.395C54.2651 118.051 54.6401 118.578 55.2963 118.977C55.9057 119.328 56.6323 119.516 57.476 119.539ZM80.7818 102.066C82.7505 102.043 84.649 102.371 86.4771 103.051L85.9146 106.988H85.2818C83.3365 106.051 81.4849 105.676 79.7271 105.863C78.1568 106.027 76.9732 106.555 76.1763 107.445V122.387L71.5709 122.457V103.156L75.0865 103.227C76.6334 102.523 78.5318 102.137 80.7818 102.066ZM106.373 117.746L107.216 121.402C105.623 122.598 102.845 123.207 98.8845 123.23C91.3141 123.277 87.4587 119.82 87.318 112.859C87.2477 109.766 88.1852 107.234 90.1305 105.266C92.2868 103.086 95.322 101.996 99.236 101.996C102.353 101.996 104.92 102.547 106.935 103.648L105.705 107.34H105.037C104.615 106.918 103.853 106.555 102.752 106.25C101.674 105.945 100.607 105.793 99.5524 105.793C97.3962 105.793 95.6501 106.344 94.3141 107.445C92.8376 108.711 92.0993 110.48 92.0993 112.754C92.0759 114.957 92.7673 116.621 94.1735 117.746C95.4391 118.777 97.1618 119.293 99.3415 119.293C100.537 119.293 101.72 119.176 102.892 118.941C104.252 118.637 105.201 118.238 105.74 117.746H106.373ZM129.151 109.906V122.492H124.581V109.73C124.581 106.941 123.151 105.594 120.292 105.688C118.909 105.711 117.761 105.875 116.846 106.18C115.862 106.531 114.854 107.117 113.823 107.938L113.858 122.492H109.218V93.8398H113.753V103.332C115.909 102.418 118.018 101.961 120.081 101.961C123.409 101.961 125.823 102.652 127.323 104.035C128.542 105.207 129.151 107.164 129.151 109.906Z" fill="white"/>
</svg>
