<svg width="140" height="127" viewBox="0 0 140 127" fill="none" xmlns="http://www.w3.org/2000/svg">
<path d="M69.2667 46.5067C72.1124 44.0434 74.3949 40.9967 75.9593 37.5735C77.5237 34.1502 78.3334 30.4304 78.3333 26.6667C78.3333 19.5942 75.5238 12.8115 70.5228 7.81049C65.5219 2.80952 58.7391 9.54192e-07 51.6667 9.54192e-07C44.5942 9.54192e-07 37.8115 2.80952 32.8105 7.81049C27.8095 12.8115 25 19.5942 25 26.6667C25 30.4304 25.8096 34.1502 27.374 37.5735C28.9384 40.9967 31.2209 44.0434 34.0667 46.5067C26.6007 49.8874 20.2665 55.3468 15.8212 62.2322C11.376 69.1177 9.00785 77.1377 9 85.3333C9 86.7478 9.5619 88.1044 10.5621 89.1046C11.5623 90.1048 12.9188 90.6667 14.3333 90.6667C15.7478 90.6667 17.1044 90.1048 18.1046 89.1046C19.1048 88.1044 19.6667 86.7478 19.6667 85.3333C19.6667 76.8464 23.0381 68.7071 29.0393 62.7059C35.0404 56.7048 43.1797 53.3333 51.6667 53.3333C60.1536 53.3333 68.2929 56.7048 74.2941 62.7059C80.2952 68.7071 83.6667 76.8464 83.6667 85.3333C83.6667 86.7478 84.2286 88.1044 85.2288 89.1046C86.229 90.1048 87.5855 90.6667 89 90.6667C90.4145 90.6667 91.771 90.1048 92.7712 89.1046C93.7714 88.1044 94.3333 86.7478 94.3333 85.3333C94.3255 77.1377 91.9574 69.1177 87.5121 62.2322C83.0669 55.3468 76.7326 49.8874 69.2667 46.5067V46.5067ZM51.6667 42.6667C48.5022 42.6667 45.4087 41.7283 42.7775 39.9702C40.1464 38.2121 38.0956 35.7132 36.8846 32.7896C35.6736 29.866 35.3567 26.6489 35.9741 23.5452C36.5915 20.4415 38.1153 17.5906 40.353 15.353C42.5906 13.1153 45.4415 11.5915 48.5452 10.9741C51.6489 10.3567 54.866 10.6736 57.7896 11.8846C60.7132 13.0956 63.2121 15.1464 64.9702 17.7775C66.7283 20.4087 67.6667 23.5022 67.6667 26.6667C67.6667 30.9101 65.981 34.9798 62.9804 37.9804C59.9798 40.981 55.9101 42.6667 51.6667 42.6667ZM103.613 44.3733C107.026 40.5298 109.256 35.7816 110.034 30.7005C110.811 25.6193 110.104 20.4217 107.996 15.7333C105.889 11.0449 102.471 7.06558 98.1545 4.27425C93.8381 1.48293 88.807 -0.00137387 83.6667 9.54192e-07C82.2522 9.54192e-07 80.8956 0.561904 79.8954 1.5621C78.8952 2.56229 78.3333 3.91885 78.3333 5.33333C78.3333 6.74782 78.8952 8.10438 79.8954 9.10457C80.8956 10.1048 82.2522 10.6667 83.6667 10.6667C87.9101 10.6667 91.9798 12.3524 94.9804 15.353C97.981 18.3535 99.6667 22.4232 99.6667 26.6667C99.6591 29.4679 98.9162 32.2182 97.5123 34.6422C96.1084 37.0663 94.0927 39.0794 91.6667 40.48C90.8759 40.9361 90.2155 41.5875 89.7486 42.3719C89.2817 43.1564 89.0239 44.0475 89 44.96C88.9777 45.8654 89.1863 46.7616 89.6062 47.564C90.0261 48.3665 90.6434 49.0488 91.4 49.5467L93.48 50.9333L94.1733 51.3067C100.602 54.3558 106.026 59.1786 109.805 65.207C113.585 71.2354 115.563 78.2183 115.507 85.3333C115.507 86.7478 116.069 88.1044 117.069 89.1046C118.069 90.1048 119.426 90.6667 120.84 90.6667C122.254 90.6667 123.611 90.1048 124.611 89.1046C125.611 88.1044 126.173 86.7478 126.173 85.3333C126.217 77.149 124.167 69.0894 120.218 61.9203C116.27 54.7513 110.554 48.711 103.613 44.3733V44.3733Z" fill="white"/>
<path d="M8.60945 99.4805V107.391H24.8516V111.398L8.60945 111.434V123.457H3.2657V95.3672H25.836V99.4453L8.60945 99.4805ZM36.9074 103.066C38.8762 103.043 40.7746 103.371 42.6027 104.051L42.0402 107.988H41.4074C39.4621 107.051 37.6105 106.676 35.8527 106.863C34.2824 107.027 33.0988 107.555 32.302 108.445V123.387L27.6965 123.457V104.156L31.2121 104.227C32.759 103.523 34.6574 103.137 36.9074 103.066ZM45.764 100.465V95.7188H50.4398V100.465H45.764ZM50.2991 103.664V123.457H45.6937V107.355H43.6194V103.664H50.2991ZM73.1127 107.496C73.8159 108.832 74.1674 110.66 74.1674 112.98C74.1674 113.496 74.1557 114.012 74.1323 114.527H57.9252C58.0424 116.496 58.6284 117.938 59.683 118.852C60.7612 119.742 62.4487 120.199 64.7455 120.223C67.5112 120.246 69.7143 119.707 71.3549 118.605L71.9877 118.641L72.8315 122.227C71.6127 123.047 70.1713 123.574 68.5073 123.809C66.8432 124.066 65.4018 124.195 64.183 124.195C61.9096 124.172 59.976 123.82 58.3823 123.141C54.7495 121.617 52.9916 118.477 53.1088 113.719C53.2026 110.438 54.1752 107.871 56.0268 106.02C58.019 104.004 60.6674 102.984 63.9721 102.961C65.894 102.938 67.6518 103.289 69.2455 104.016C71.0034 104.836 72.2924 105.996 73.1127 107.496ZM58.312 111.047H69.4213C68.9995 108.047 67.0307 106.605 63.5151 106.723C60.8198 106.816 59.0854 108.258 58.312 111.047ZM95.7505 111.539V123.422H91.2154V111.258C91.2154 108.023 89.2935 106.477 85.4498 106.617C83.5279 106.688 81.9459 107.32 80.7037 108.516V123.422H76.1334V104.438L79.6138 104.473C81.5357 103.559 83.9732 103.102 86.9263 103.102C89.856 103.102 92.1529 103.887 93.8169 105.457C95.106 106.699 95.7505 108.727 95.7505 111.539ZM119.584 94.7695V123.035L116.314 122.965C113.642 123.691 111.193 124.031 108.966 123.984C106.248 123.914 104.127 123.422 102.603 122.508C99.861 120.867 98.4548 117.938 98.3845 113.719C98.3376 110.508 99.2985 107.93 101.267 105.984C103.236 104.039 105.744 103.043 108.791 102.996C111.181 102.949 113.22 103.266 114.908 103.945V94.7695H119.584ZM114.943 118.816V108.551C113.537 107.355 111.697 106.758 109.424 106.758C107.736 106.758 106.318 107.32 105.17 108.445C103.904 109.688 103.271 111.352 103.271 113.438C103.271 117.82 105.17 120.012 108.966 120.012C111.896 120.012 113.888 119.613 114.943 118.816ZM136.21 112.664C138.718 113.602 139.971 115.336 139.971 117.867C139.971 120.211 138.999 121.934 137.054 123.035C135.483 123.926 133.444 124.371 130.936 124.371C127.561 124.371 124.749 123.715 122.499 122.402L123.554 118.816H124.186C125.921 119.965 128.065 120.562 130.62 120.609C133.573 120.656 135.214 119.883 135.542 118.289C135.589 117.961 135.518 117.598 135.331 117.199C135.073 116.707 134.663 116.344 134.1 116.109C133.304 115.805 132.19 115.535 130.761 115.301C129.05 115.02 127.901 114.785 127.315 114.598C125.487 114.105 124.21 113.426 123.483 112.559C122.757 111.668 122.393 110.566 122.393 109.254C122.393 108.949 122.417 108.633 122.464 108.305C122.721 106.336 123.846 104.895 125.839 103.98C127.409 103.254 129.343 102.914 131.639 102.961C134.264 103.008 136.608 103.57 138.671 104.648L137.792 108.199H137.124C135.413 106.934 133.573 106.324 131.604 106.371C130.362 106.395 129.296 106.582 128.405 106.934C127.327 107.379 126.776 108 126.753 108.797C126.706 109.734 127.163 110.355 128.124 110.66C129.249 111.012 130.585 111.328 132.132 111.609C133.913 111.961 135.272 112.312 136.21 112.664Z" fill="white"/>
</svg>
